<?xml version="1.0" encoding="utf-8"?>
<!-- Generator: Adobe Illustrator 26.0.1, SVG Export Plug-In . SVG Version: 6.00 Build 0)  -->
<svg version="1.1" id="Calque_1" xmlns="http://www.w3.org/2000/svg" xmlns:xlink="http://www.w3.org/1999/xlink" width="20.243" height="13.501" x="0px" y="0px"
	 viewBox="0 0 20.2 13.5" style="enable-background:new 0 0 20.2 13.5;" xml:space="preserve">
<style type="text/css">
	.st0{fill:#FFFFFF;}
</style>
<path class="st0" d="M16.9,6l-4.2-4.2c-0.3-0.4-0.3-0.9,0-1.3C13.1,0,13.6,0,14,0.4l0,0l5.7,5.8l0,0c0.1,0.1,0.2,0.2,0.2,0.3
	C20,6.7,20,6.8,20,6.9c0,0.2-0.1,0.5-0.3,0.6L14,13.2c-0.3,0.4-0.9,0.4-1.3,0l0,0c-0.4-0.4-0.4-0.9,0-1.3l4.2-4l0.9-1L16.9,6z"/>
<rect x="0.7" y="6.1" transform="matrix(-1 -1.224647e-16 1.224647e-16 -1 18.9664 13.6026)" class="st0" width="17.5" height="1.4"/>
</svg>
