<?xml version="1.0" encoding="utf-8"?>
<!-- Generator: Adobe Illustrator 26.0.1, SVG Export Plug-In . SVG Version: 6.00 Build 0)  -->
<svg version="1.1" id="Calque_1" xmlns="http://www.w3.org/2000/svg" width="20.243" height="13.501" xmlns:xlink="http://www.w3.org/1999/xlink" x="0px" y="0px"
	 viewBox="0 0 20.2 13.5" style="enable-background:new 0 0 20.2 13.5;" xml:space="preserve">
<style type="text/css">
	.st0{fill:#FFFFFF;}
</style>
<path class="st0" d="M3.8,7.6L8,11.9c0.3,0.4,0.3,0.9,0,1.3c-0.4,0.4-0.9,0.4-1.3,0l0,0L1,7.3l0,0C0.9,7.2,0.8,7.1,0.8,7
	C0.7,6.9,0.7,6.9,0.7,6.8c0-0.2,0.1-0.5,0.3-0.6l5.7-5.7C7.1,0,7.6,0,8,0.4l0,0c0.4,0.4,0.4,0.9,0,1.3l-4.2,4l-0.9,1L3.8,7.6z"/>
<rect x="2.5" y="6.1" class="st0" width="17.5" height="1.4"/>
</svg>
