<svg xmlns="http://www.w3.org/2000/svg" width="44.484" height="54.271" viewBox="0 0 44.484 54.271">
  <g id="les-choix" transform="translate(0.5 0.5)">
    <g id="Groupe_52" data-name="Groupe 52" transform="translate(5.338 8.007)">
      <g id="Groupe_51" data-name="Groupe 51" transform="translate(0)">
        <path id="Tracé_80" data-name="Tracé 80" d="M104.51,79.629a.834.834,0,0,0-.834.834,1.835,1.835,0,1,1-1.835-1.835.834.834,0,1,0,0-1.668,3.5,3.5,0,1,0,3.5,3.5A.834.834,0,0,0,104.51,79.629Z" transform="translate(-98.338 -76.96)" fill="#852888" stroke="#852888" stroke-width="1"/>
      </g>
    </g>
    <g id="Groupe_54" data-name="Groupe 54" transform="translate(5.338 17.794)">
      <g id="Groupe_53" data-name="Groupe 53" transform="translate(0)">
        <path id="Tracé_81" data-name="Tracé 81" d="M104.51,173.691a.834.834,0,0,0-.834.834,1.835,1.835,0,1,1-1.835-1.835.834.834,0,1,0,0-1.668,3.5,3.5,0,1,0,3.5,3.5A.834.834,0,0,0,104.51,173.691Z" transform="translate(-98.338 -171.022)" fill="#852888" stroke="#852888" stroke-width="1"/>
      </g>
    </g>
    <g id="Groupe_56" data-name="Groupe 56" transform="translate(14.235 22.243)">
      <g id="Groupe_55" data-name="Groupe 55" transform="translate(0)">
        <path id="Tracé_82" data-name="Tracé 82" d="M190.911,213.779h-6.228a.834.834,0,1,0,0,1.668h6.228a.834.834,0,0,0,0-1.668Z" transform="translate(-183.849 -213.779)" fill="#852888" stroke="#852888" stroke-width="1"/>
      </g>
    </g>
    <g id="Groupe_58" data-name="Groupe 58" transform="translate(14.235 18.684)">
      <g id="Groupe_57" data-name="Groupe 57" transform="translate(0)">
        <path id="Tracé_83" data-name="Tracé 83" d="M190.911,179.574h-6.228a.834.834,0,1,0,0,1.668h6.228a.834.834,0,0,0,0-1.668Z" transform="translate(-183.849 -179.574)" fill="#852888" stroke="#852888" stroke-width="1"/>
      </g>
    </g>
    <g id="Groupe_60" data-name="Groupe 60" transform="translate(14.235 32.03)">
      <g id="Groupe_59" data-name="Groupe 59" transform="translate(0)">
        <path id="Tracé_84" data-name="Tracé 84" d="M189.132,307.841h-4.449a.834.834,0,1,0,0,1.668h4.449a.834.834,0,1,0,0-1.668Z" transform="translate(-183.849 -307.841)" fill="#852888" stroke="#852888" stroke-width="1"/>
      </g>
    </g>
    <g id="Groupe_62" data-name="Groupe 62" transform="translate(14.235 28.471)">
      <g id="Groupe_61" data-name="Groupe 61" transform="translate(0)">
        <path id="Tracé_85" data-name="Tracé 85" d="M190.911,273.637h-6.228a.834.834,0,0,0,0,1.668h6.228a.834.834,0,0,0,0-1.668Z" transform="translate(-183.849 -273.637)" fill="#852888" stroke="#852888" stroke-width="1"/>
      </g>
    </g>
    <g id="Groupe_64" data-name="Groupe 64" transform="translate(14.235 12.456)">
      <g id="Groupe_63" data-name="Groupe 63" transform="translate(0)">
        <path id="Tracé_86" data-name="Tracé 86" d="M198.919,119.716H184.683a.834.834,0,1,0,0,1.668h14.235a.834.834,0,0,0,0-1.668Z" transform="translate(-183.849 -119.716)" fill="#852888" stroke="#852888" stroke-width="1"/>
      </g>
    </g>
    <g id="Groupe_66" data-name="Groupe 66" transform="translate(14.235 8.897)">
      <g id="Groupe_65" data-name="Groupe 65" transform="translate(0)">
        <path id="Tracé_87" data-name="Tracé 87" d="M195.36,85.511H184.683a.834.834,0,1,0,0,1.668H195.36a.834.834,0,1,0,0-1.668Z" transform="translate(-183.849 -85.511)" fill="#852888" stroke="#852888" stroke-width="1"/>
      </g>
    </g>
    <g id="Groupe_68" data-name="Groupe 68" transform="translate(5.338 27.581)">
      <g id="Groupe_67" data-name="Groupe 67" transform="translate(0)">
        <path id="Tracé_88" data-name="Tracé 88" d="M104.51,267.754a.834.834,0,0,0-.834.834,1.835,1.835,0,1,1-1.835-1.835.834.834,0,1,0,0-1.668,3.5,3.5,0,1,0,3.5,3.5A.834.834,0,0,0,104.51,267.754Z" transform="translate(-98.338 -265.085)" fill="#852888" stroke="#852888" stroke-width="1"/>
      </g>
    </g>
    <g id="Groupe_70" data-name="Groupe 70" transform="translate(0)">
      <g id="Groupe_69" data-name="Groupe 69">
        <path id="Tracé_89" data-name="Tracé 89" d="M79.895,0H49.645a2.617,2.617,0,0,0-2.614,2.614V39.981a2.616,2.616,0,0,0,2.614,2.614H64.77a.834.834,0,1,0,0-1.668H49.645a.946.946,0,0,1-.945-.945V2.614a.946.946,0,0,1,.945-.945h30.25a.946.946,0,0,1,.945.945V30.195a.834.834,0,0,0,1.668,0V2.614A2.617,2.617,0,0,0,79.895,0Z" transform="translate(-47.031)" fill="#852888" stroke="#852888" stroke-width="1"/>
      </g>
    </g>
    <g id="Groupe_72" data-name="Groupe 72" transform="translate(20.021 18.684)">
      <g id="Groupe_71" data-name="Groupe 71">
        <path id="Tracé_90" data-name="Tracé 90" d="M260.17,194.718a3.077,3.077,0,0,0-2.163.608,3.038,3.038,0,0,0-2.285-1.5,3.078,3.078,0,0,0-2.163.608,3.038,3.038,0,0,0-2.285-1.5,3.082,3.082,0,0,0-1.7.319V182.636a3.059,3.059,0,0,0-3.371-3.043,3.156,3.156,0,0,0-2.746,3.17v10.649L241,195.864a5.249,5.249,0,0,0-1.407,4.945l1.861,7.911a7.035,7.035,0,0,0,6.874,5.445h7.523a7.07,7.07,0,0,0,7.062-7.062v-9.215A3.156,3.156,0,0,0,260.17,194.718Zm1.078,12.385a5.4,5.4,0,0,1-5.394,5.394H248.33a5.373,5.373,0,0,1-5.251-4.158l-1.861-7.911a3.592,3.592,0,0,1,.963-3.384l1.272-1.272v2.88a.834.834,0,1,0,1.668,0V182.763a1.475,1.475,0,0,1,1.244-1.51,1.391,1.391,0,0,1,1.536,1.383v14.68a.834.834,0,1,0,1.668,0v-1.335a1.391,1.391,0,0,1,1.536-1.383,1.475,1.475,0,0,1,1.244,1.51v2.1a.834.834,0,1,0,1.668,0v-1.335a1.391,1.391,0,0,1,1.536-1.383A1.475,1.475,0,0,1,256.8,197v2.1a.834.834,0,1,0,1.668,0v-1.335A1.391,1.391,0,0,1,260,196.378a1.475,1.475,0,0,1,1.244,1.51V207.1Z" transform="translate(-239.452 -179.578)" fill="#852888" stroke="#852888" stroke-width="1"/>
      </g>
    </g>
  </g>
</svg>
