<svg id="Calque_1" data-name="Calque 1" xmlns="http://www.w3.org/2000/svg" xmlns:xlink="http://www.w3.org/1999/xlink" viewBox="0 0 800 230"><defs><style>.cls-1{fill:url(#linear-gradient);}.cls-2,.cls-3,.cls-4,.cls-5,.cls-6{fill-rule:evenodd;}.cls-2{fill:url(#linear-gradient-2);}.cls-3{fill:url(#linear-gradient-3);}.cls-4{fill:url(#linear-gradient-4);}.cls-5{fill:url(#linear-gradient-5);}.cls-6{fill:url(#linear-gradient-6);}.cls-7{fill:url(#linear-gradient-7);}.cls-8{fill:url(#Dégradé_sans_nom_6);}.cls-9{fill:#333;}.cls-10{fill:#666;}</style><linearGradient id="linear-gradient" x1="49.59" y1="124.94" x2="163.08" y2="124.94" gradientUnits="userSpaceOnUse"><stop offset="0" stop-color="#e47cb0"/><stop offset="0.49" stop-color="#cb569f"/><stop offset="1" stop-color="#852888"/></linearGradient><linearGradient id="linear-gradient-2" x1="4517.08" y1="-1509.33" x2="4726.89" y2="-1509.33" gradientTransform="matrix(-0.94, 0.33, 0.33, 0.94, 4999.12, -1.21)" gradientUnits="userSpaceOnUse"><stop offset="0" stop-color="#302b6c"/><stop offset="1" stop-color="#842e90"/></linearGradient><linearGradient id="linear-gradient-3" x1="4527.84" y1="-1547.22" x2="4836.46" y2="-1547.22" xlink:href="#linear-gradient-2"/><linearGradient id="linear-gradient-4" x1="4715.75" y1="-1387.67" x2="4587.51" y2="-1628.51" gradientTransform="matrix(-0.94, 0.33, 0.33, 0.94, 4999.12, -1.21)" xlink:href="#linear-gradient"/><linearGradient id="linear-gradient-5" x1="4603.18" y1="-1559.14" x2="4552.99" y2="-1419.86" gradientTransform="matrix(-0.94, 0.33, 0.33, 0.94, 4999.12, -1.21)" gradientUnits="userSpaceOnUse"><stop offset="0" stop-color="#662f8a"/><stop offset="0.14" stop-color="#6c2e89"/><stop offset="0.33" stop-color="#7c2d87"/><stop offset="0.54" stop-color="#972a84"/><stop offset="0.76" stop-color="#bd257f"/><stop offset="1" stop-color="#ec2079"/></linearGradient><linearGradient id="linear-gradient-6" x1="4672.74" y1="-1567.15" x2="4428.19" y2="-1447.02" xlink:href="#linear-gradient-2"/><linearGradient id="linear-gradient-7" x1="145.16" y1="131.63" x2="227.97" y2="131.63" gradientUnits="userSpaceOnUse"><stop offset="0" stop-color="#2e368e"/><stop offset="1" stop-color="#72ccdc"/></linearGradient><linearGradient id="Dégradé_sans_nom_6" x1="183.99" y1="85.29" x2="207.21" y2="85.29" gradientUnits="userSpaceOnUse"><stop offset="0" stop-color="#4467a7"/><stop offset="0.24" stop-color="#5082b5"/><stop offset="0.75" stop-color="#69b7d1"/><stop offset="1" stop-color="#72ccdc"/></linearGradient></defs><path class="cls-1" d="M85.52,168.34a2.11,2.11,0,0,0,.35,0,2.7,2.7,0,0,0,2.35-2.68V102.79l8.09,27.14a2.7,2.7,0,0,0,4.31,1.31l12.09-10,5,5a2.69,2.69,0,0,0,1.91.79h40.81a2.7,2.7,0,1,0,0-5.4H120.69l-5.9-5.9a2.69,2.69,0,0,0-3.63-.17l-10.84,9-12.21-41a2.7,2.7,0,0,0-5.29.77v60.5l-6.85-26a2.7,2.7,0,0,0-4.41-1.33l-4.68,4.18H52.29a2.7,2.7,0,1,0,0,5.4H67.91a2.72,2.72,0,0,0,1.8-.68l2.16-1.93,11,42A2.7,2.7,0,0,0,85.52,168.34Z"/><path class="cls-2" d="M13,86.23a50.29,50.29,0,0,0-.28,8c1.28,26.68,23.6,59.31,83.1,89.27-50-29-65.94-61.75-62.14-84.42,5.06-30.21,45.16-42.5,86.49-4.06C87.68,22.91,26.61,45.17,13,86.23Z"/><path class="cls-3" d="M109.89,86.44A120.87,120.87,0,0,1,120,94.82l0-.31C87.39,23,26.58,45.27,13,86.23c21.68-42.72,68.45-48.18,96.88.21Z"/><path class="cls-4" d="M217.5,60c-7.27-18.77-25-34.13-50.56-33.25-21.27.73-42,14.28-52.06,30.1C77.14,20.3,17.8,43.66,13,86.23,26.61,45.17,87.68,22.91,120.18,95,138.43,38.88,187.2,16.29,217.5,60Z"/><path class="cls-5" d="M217.5,60c-30.3-43.71-79.07-21.12-97.32,35C148.1,41.31,211.67,46.13,221,73.1A41,41,0,0,0,217.5,60"/><path class="cls-6" d="M217.5,60c-30.26-43.65-78.95-21.18-97.25,34.8h0a101.58,101.58,0,0,1,12.79-19.27h0C156.44,39.61,187.23,26.24,217.5,60Z"/><path class="cls-7" d="M153,203.29s-23.17-32.12,9.92-69.53c0,0,23.16-18.91,19.47-27.61,0,0,23.19.81-1.17,30.69,0,0,47.27-19.67,19.85-59.08,0,0-15.43-10.22-14.09-17.79,0,0,29.19,5,38.37,29.68s-6.88,60-36,74.7S153,203.29,153,203.29Z"/><path class="cls-8" d="M207.18,98.39s-13.72-4.76-12.9-11.25c0,0-11.2-7.55-10.23-13.45S208.13,80,207.18,98.39Z"/><path class="cls-9" d="M300.91,68.68l-5.5,11.91a13.29,13.29,0,0,0-9.17-3.92A6.84,6.84,0,0,0,282.18,78a4.19,4.19,0,0,0-1.87,3.6,4.08,4.08,0,0,0,1.16,2.83,7.43,7.43,0,0,0,2.19,1.72c.68.31,1.61.68,2.79,1.1L290,88.44a22.37,22.37,0,0,1,9.66,5.76q3.47,3.72,3.46,10.39,0,10.74-5.5,15.91-5.93,5.56-15.1,5.57a29.91,29.91,0,0,1-18.7-6.74l5.92-12.39q6.28,6.12,12.28,6.11a7.57,7.57,0,0,0,4.69-1.52,5.21,5.21,0,0,0,2-4.43q0-4-6.71-6.2l-1.69-.55a48.51,48.51,0,0,1-6-2.19,19.93,19.93,0,0,1-4.37-2.86,10,10,0,0,1-3.11-4.67,22.88,22.88,0,0,1-.92-7q0-8.94,5.15-14.38a17.35,17.35,0,0,1,13.2-5.45,30.46,30.46,0,0,1,8.57,1.33A32.2,32.2,0,0,1,300.91,68.68Z"/><path class="cls-9" d="M330.83,78.4v46.1H317V78.4H305.57v-13h36.69v13Z"/><path class="cls-9" d="M377.54,78.4H361.1v9.88h15.6v13H361.1v10.2h16.44v13H347.27V65.38h30.27Z"/><path class="cls-9" d="M445,68.68l-5.5,11.91a13.29,13.29,0,0,0-9.18-3.92A6.83,6.83,0,0,0,426.27,78a4.19,4.19,0,0,0-1.87,3.6,4.08,4.08,0,0,0,1.16,2.83,7.43,7.43,0,0,0,2.19,1.72c.68.31,1.61.68,2.79,1.1l3.52,1.18a22.34,22.34,0,0,1,9.67,5.76q3.47,3.72,3.46,10.39,0,10.74-5.5,15.91-5.94,5.56-15.11,5.57a29.93,29.93,0,0,1-18.7-6.74l5.93-12.39q6.29,6.12,12.28,6.11a7.57,7.57,0,0,0,4.69-1.52,5.23,5.23,0,0,0,2-4.43q0-4-6.7-6.2l-1.69-.55a48.51,48.51,0,0,1-6-2.19A20.22,20.22,0,0,1,414,95.3a10,10,0,0,1-3.1-4.67,22.88,22.88,0,0,1-.92-7q0-8.94,5.15-14.38a17.35,17.35,0,0,1,13.2-5.45,30.46,30.46,0,0,1,8.57,1.33A32.2,32.2,0,0,1,445,68.68Z"/><path class="cls-9" d="M466.1,67.23a29.1,29.1,0,0,1,28.79,0,29.26,29.26,0,0,1,10.87,10.86,30.44,30.44,0,0,1,4.16,15.75q0,14.35-8.29,23.49t-21.14,9.13q-12.84,0-21.13-9.13t-8.29-23.49a30.44,30.44,0,0,1,4.16-15.75A29.26,29.26,0,0,1,466.1,67.23Zm25,15.8a14.25,14.25,0,0,0-21.17,0,15.38,15.38,0,0,0-4.45,10.89,18.55,18.55,0,0,0,4.38,12.59,13.77,13.77,0,0,0,21.31,0,18.55,18.55,0,0,0,4.38-12.59A15.38,15.38,0,0,0,491.08,83Z"/><path class="cls-9" d="M530.17,65.38v46.11h16.58v13H516.34V65.38Z"/><path class="cls-9" d="M583.59,65.38h13.83V98.63a59.85,59.85,0,0,1-1,12.11,18.14,18.14,0,0,1-4.55,8.74q-6,6.58-17.64,6.59t-17.64-6.59a18.23,18.23,0,0,1-4.55-8.74,60.66,60.66,0,0,1-1-12.11V65.38h13.83V96.51c0,1.88,0,3.45.1,4.7a26.52,26.52,0,0,0,.64,4.24,11.08,11.08,0,0,0,1.48,3.76,7.54,7.54,0,0,0,2.79,2.39,10.26,10.26,0,0,0,8.75,0,7.62,7.62,0,0,0,2.79-2.39,11.29,11.29,0,0,0,1.48-3.76,26.41,26.41,0,0,0,.63-4.24c.07-1.25.11-2.82.11-4.7Z"/><path class="cls-9" d="M627.34,78.4v46.1H613.51V78.4H602.08v-13h36.69v13Z"/><path class="cls-9" d="M657.61,65.38V124.5H643.78V65.38Z"/><path class="cls-9" d="M679,67.23a29.1,29.1,0,0,1,28.79,0,29.17,29.17,0,0,1,10.86,10.86,30.35,30.35,0,0,1,4.17,15.75q0,14.35-8.29,23.49t-21.14,9.13q-12.84,0-21.13-9.13T664,93.84a30.44,30.44,0,0,1,4.16-15.75A29.26,29.26,0,0,1,679,67.23ZM704,83a14.25,14.25,0,0,0-21.17,0,15.38,15.38,0,0,0-4.45,10.89,18.55,18.55,0,0,0,4.38,12.59,13.77,13.77,0,0,0,21.31,0,18.54,18.54,0,0,0,4.37-12.59A15.37,15.37,0,0,0,704,83Z"/><path class="cls-9" d="M729.23,124.5V65.38h13.83l25.33,36.15h.14V65.38h13.83V124.5H768.53L743.2,88.28h-.14V124.5Z"/><path class="cls-10" d="M261.79,167.65l3.28-24h4.83l4.15,14.1a11.8,11.8,0,0,1,.29,1.3c.1.56.2,1.21.29,1.94.08-.74.16-1.4.26-2a9.69,9.69,0,0,1,.28-1.29l4.23-14.07h4.76l3.29,24h-4.37l-1.58-14.44c-.11-1.07-.19-1.88-.23-2.43s-.06-1.05-.06-1.52c0-.25,0-.44,0-.56a3.28,3.28,0,0,1,0-.34q-.23,1.41-.42,2.43a15,15,0,0,1-.36,1.55l-4.57,15.31H273.3l-4.49-15.31c0-.14-.12-.54-.26-1.18s-.31-1.58-.55-2.81v.7a40.26,40.26,0,0,1-.26,4.09l0,.07-1.56,14.44Z"/><path class="cls-10" d="M290.44,167.65v-24h12.7V148h-8.09v4.92h8.09v4.36h-8.09v6h8.09v4.35Z"/><path class="cls-10" d="M307.66,167.65v-24h5.87a21.91,21.91,0,0,1,5.48.54,9.13,9.13,0,0,1,3.52,1.8,10.18,10.18,0,0,1,3,4.08,16,16,0,0,1,0,11.26,10.28,10.28,0,0,1-3,4.07,9.49,9.49,0,0,1-3.28,1.69,20.62,20.62,0,0,1-5.28.51h-6.24Zm4.61-4.32h2.56c2.42,0,4.17-.61,5.28-1.83s1.66-3.16,1.66-5.81-.56-4.57-1.66-5.8-2.86-1.84-5.28-1.84h-2.56Z"/><path class="cls-10" d="M330.46,167.65v-24h4.6v24Z"/><path class="cls-10" d="M357.34,149.93a9.53,9.53,0,0,0-2.87-2,7.76,7.76,0,0,0-3.15-.65,7,7,0,0,0-5.49,2.29,10.33,10.33,0,0,0-.15,12.15,6.48,6.48,0,0,0,5.19,2.22,8.54,8.54,0,0,0,3.47-.7,9.59,9.59,0,0,0,3-2.08l0,5.25a11.87,11.87,0,0,1-3.09,1.44,12.18,12.18,0,0,1-3.39.47,11,11,0,0,1-8.46-3.56,14,14,0,0,1,0-18,11.15,11.15,0,0,1,8.54-3.55,13.57,13.57,0,0,1,3.39.41,13.85,13.85,0,0,1,3.23,1.26Z"/><path class="cls-10" d="M359.07,167.65l8.2-24h5.27l8.32,24h-5.24l-1.75-5.08h-8.35l-1.5,5.08Zm13.72-9.11-2.41-7.74c-.07-.23-.16-.62-.27-1.18s-.22-1.24-.34-2c-.12.77-.25,1.47-.36,2.08s-.21,1-.27,1.24l-2.33,7.64Z"/><path class="cls-10" d="M383.13,167.65v-24h4.61v19.6h7.36v4.35Z"/><path class="cls-10" d="M421,167.65l-1.84-2.34a9.74,9.74,0,0,1-2.81,2.24,6.94,6.94,0,0,1-3.11.68,6.47,6.47,0,0,1-6.94-6.88,6.78,6.78,0,0,1,1.13-3.77,11.54,11.54,0,0,1,3.44-3.26,9.06,9.06,0,0,1-1.73-2.57,6.9,6.9,0,0,1-.51-2.67,5,5,0,0,1,1.57-3.89,6,6,0,0,1,4.22-1.46,5.75,5.75,0,0,1,4.05,1.38,4.74,4.74,0,0,1,1.5,3.68,5.22,5.22,0,0,1-.88,2.93,12.86,12.86,0,0,1-3.07,3l3.66,4.7c.62-.67,1.19-1.3,1.7-1.91s1-1.21,1.43-1.81l2.37,2.82c-.5.62-1,1.24-1.54,1.87s-1.11,1.29-1.74,2l3.95,5.3Zm-4-5.18L412.85,157l-.46.36a6.68,6.68,0,0,0-1.62,1.78,3.7,3.7,0,0,0-.52,1.88,3.21,3.21,0,0,0,.9,2.27,2.81,2.81,0,0,0,2.14,1,4.51,4.51,0,0,0,2-.47A4.33,4.33,0,0,0,416.91,162.47Zm-3-10.1.77-.51a4.13,4.13,0,0,0,1.26-1.28,3,3,0,0,0,.42-1.56,2.4,2.4,0,0,0-.57-1.67,1.84,1.84,0,0,0-1.45-.64,2,2,0,0,0-1.55.65,2.42,2.42,0,0,0-.59,1.69,3.05,3.05,0,0,0,.17,1,3.38,3.38,0,0,0,.5.91Z"/><path class="cls-10" d="M436.7,164.61l2.57-3.22a4.21,4.21,0,0,0,1.56,2.08,4,4,0,0,0,2.41.76,3.65,3.65,0,0,0,2.56-.85,2.92,2.92,0,0,0,.95-2.29q0-1.69-3.14-3.38c-.68-.36-1.21-.66-1.61-.89a12,12,0,0,1-3.91-3.2,6.76,6.76,0,0,1,1-8.59,7.89,7.89,0,0,1,5.49-1.9,7.06,7.06,0,0,1,3.38.76,7.23,7.23,0,0,1,2.51,2.38l-2.73,2.9a3.58,3.58,0,0,0-1.29-1.57,3.52,3.52,0,0,0-1.93-.51,3.14,3.14,0,0,0-2.21.76,2.52,2.52,0,0,0-.84,2q0,1.89,3.33,3.47l1,.49a11.45,11.45,0,0,1,4.06,3.14,6.47,6.47,0,0,1,1.32,4,7.15,7.15,0,0,1-2.07,5.38,7.67,7.67,0,0,1-5.56,2,8.76,8.76,0,0,1-4.24-.95A6,6,0,0,1,436.7,164.61Z"/><path class="cls-10" d="M472.34,149.93a9.66,9.66,0,0,0-2.87-2,7.76,7.76,0,0,0-3.15-.65,7,7,0,0,0-5.49,2.29,10.33,10.33,0,0,0-.15,12.15,6.45,6.45,0,0,0,5.18,2.22,8.55,8.55,0,0,0,3.48-.7,9.43,9.43,0,0,0,3-2.08l0,5.25a11.81,11.81,0,0,1-3.08,1.44,12.25,12.25,0,0,1-3.4.47,11,11,0,0,1-8.46-3.56,14,14,0,0,1,0-18,11.15,11.15,0,0,1,8.54-3.55,13.57,13.57,0,0,1,3.39.41,13.78,13.78,0,0,1,3.22,1.26Z"/><path class="cls-10" d="M476.72,167.65v-24h4.6v24Z"/><path class="cls-10" d="M486.24,167.65v-24h12.7V148h-8.09v4.92h8.09v4.36h-8.09v6h8.09v4.35Z"/><path class="cls-10" d="M503.46,167.65v-24h4.78l9.55,13.94a11.75,11.75,0,0,1,.9,1.66c.33.72.67,1.56,1,2.53-.11-.71-.19-1.41-.24-2.11s-.07-1.57-.07-2.62V143.7h4.4v24h-4.52l-9.81-14.2a11.21,11.21,0,0,1-.9-1.66c-.32-.71-.66-1.57-1-2.56.11.69.19,1.38.24,2.09s.07,1.59.07,2.66v13.67Z"/><path class="cls-10" d="M536.67,148.05v19.6H532v-19.6h-5.27V143.7h15.17v4.35Z"/><path class="cls-10" d="M545,167.65v-24h4.61v24Z"/><path class="cls-10" d="M554.57,167.65v-24h12.7V148h-8.09v4.92h8.09v4.36h-8.09v10.35Z"/><path class="cls-10" d="M570.92,167.65v-24h4.61v24Z"/><path class="cls-10" d="M597.81,149.93a9.66,9.66,0,0,0-2.87-2,7.79,7.79,0,0,0-3.15-.65,7,7,0,0,0-5.5,2.29,10.36,10.36,0,0,0-.14,12.15,6.45,6.45,0,0,0,5.18,2.22,8.51,8.51,0,0,0,3.47-.7,9.47,9.47,0,0,0,3-2.08l0,5.25a11.72,11.72,0,0,1-3.09,1.44,12.12,12.12,0,0,1-3.39.47,11,11,0,0,1-8.46-3.56,13.94,13.94,0,0,1,0-18,11.14,11.14,0,0,1,8.54-3.55,13.57,13.57,0,0,1,3.39.41A14,14,0,0,1,598,144.8Z"/><path class="cls-10" d="M611.36,167.65v-24h12.69V148H616v4.92h8.08v4.36H616v6h8.08v4.35Z"/><path class="cls-10" d="M650.47,170.44h-4.59l-2.34-3.08c-1,.31-1.93.53-2.63.66a9.71,9.71,0,0,1-1.87.21,10.35,10.35,0,0,1-4.35-1,11.34,11.34,0,0,1-3.71-2.68,12.62,12.62,0,0,1-2.51-4.07,13.5,13.5,0,0,1-.87-4.82,13.35,13.35,0,0,1,.87-4.8,12.47,12.47,0,0,1,2.51-4.08,10.94,10.94,0,0,1,3.71-2.71,10.69,10.69,0,0,1,4.44-.94,10.57,10.57,0,0,1,4.39.94,11.31,11.31,0,0,1,3.73,2.71,12.59,12.59,0,0,1,2.5,4.06,13.34,13.34,0,0,1,.87,4.82,13.18,13.18,0,0,1-1,5.26,13,13,0,0,1-3.06,4.33Zm-8.28-10.9,1.59,2.08a8.22,8.22,0,0,0,1.53-2.7,9.58,9.58,0,0,0,.53-3.19,8.65,8.65,0,0,0-1.92-5.73,6,6,0,0,0-4.79-2.32,6,6,0,0,0-4.84,2.31,9.59,9.59,0,0,0,0,11.46,6,6,0,0,0,4.79,2.28,5.61,5.61,0,0,0,.7-.06l1.06-.17-3.09-4Z"/><path class="cls-10" d="M673.07,143.7v14.91c0,3.25-.77,5.67-2.31,7.28s-3.86,2.4-7,2.4-5.5-.8-7-2.4-2.31-4-2.31-7.28V143.7H659v14.1a7.15,7.15,0,0,0,1.18,4.46,4.21,4.21,0,0,0,3.52,1.5,4.3,4.3,0,0,0,3.57-1.51,7,7,0,0,0,1.2-4.45V143.7Z"/><path class="cls-10" d="M677.93,167.65v-24h4.61v24Z"/><path class="cls-10" d="M687.46,167.65v-24h5.3q4.25,0,6.27,1.8t2,5.56a7.26,7.26,0,0,1-2,5.47,7.76,7.76,0,0,1-5.64,2H692.1v9.14Zm4.64-13.13h.66a3.71,3.71,0,0,0,2.74-.87,3.86,3.86,0,0,0,.86-2.78,3.41,3.41,0,0,0-.86-2.58,3.88,3.88,0,0,0-2.74-.81h-.66Z"/><path class="cls-10" d="M702.36,167.65l3.29-24h4.83l4.15,14.1a11.8,11.8,0,0,1,.29,1.3c.1.56.2,1.21.29,1.94.07-.74.16-1.4.26-2a9.69,9.69,0,0,1,.28-1.29L720,143.7h4.75l3.3,24h-4.37l-1.58-14.44c-.12-1.07-.19-1.88-.23-2.43s-.06-1.05-.06-1.52c0-.25,0-.44,0-.56a3.28,3.28,0,0,1,0-.34q-.23,1.41-.42,2.43c-.13.68-.26,1.2-.36,1.55l-4.57,15.31h-2.59l-4.49-15.31c0-.14-.13-.54-.26-1.18s-.32-1.58-.55-2.81v.7a37.88,37.88,0,0,1-.27,4.09v.07l-1.56,14.44Z"/><path class="cls-10" d="M731,167.65v-24h12.7V148h-8.09v4.92h8.09v4.36h-8.09v6h8.09v4.35Z"/><path class="cls-10" d="M748.24,167.65v-24H753l9.55,13.94a11.75,11.75,0,0,1,.9,1.66c.33.72.67,1.56,1,2.53-.1-.71-.18-1.41-.23-2.11s-.08-1.57-.08-2.62V143.7h4.41v24h-4.52l-9.81-14.2a10.35,10.35,0,0,1-.9-1.66c-.32-.71-.67-1.57-1-2.56.11.69.19,1.38.24,2.09s.07,1.59.07,2.66v13.67Z"/><path class="cls-10" d="M781.44,148.05v19.6h-4.62v-19.6h-5.27V143.7h15.17v4.35Z"/></svg>