<svg id="phone-call" xmlns="http://www.w3.org/2000/svg" xmlns:xlink="http://www.w3.org/1999/xlink" width="15.922" height="16.378" viewBox="0 0 15.922 16.378">
  <defs>
    <linearGradient id="linear-gradient" x1="0.068" y1="0.638" x2="0.883" y2="1.579" gradientUnits="objectBoundingBox">
      <stop offset="0" stop-color="#852888"/>
      <stop offset="1" stop-color="#e47cb0"/>
    </linearGradient>
  </defs>
  <path id="Tracé_91" data-name="Tracé 91" d="M112.278,2.146A7.278,7.278,0,0,0,107.1,0a.58.58,0,1,0,0,1.161,6.165,6.165,0,0,1,6.165,6.165.58.58,0,0,0,1.161,0A7.277,7.277,0,0,0,112.278,2.146Z" transform="translate(-98.501 0)" fill="url(#linear-gradient)"/>
  <path id="Tracé_92" data-name="Tracé 92" d="M109.89,47.531a.58.58,0,0,0,1.161,0,3.958,3.958,0,0,0-3.953-3.953h0a.58.58,0,0,0,0,1.161A2.8,2.8,0,0,1,109.89,47.531Z" transform="translate(-98.501 -40.205)" fill="url(#linear-gradient)"/>
  <path id="Tracé_93" data-name="Tracé 93" d="M13.053,39.657a1.752,1.752,0,0,0-1.552.928.58.58,0,1,0,.958.655c.255-.373.371-.432.528-.425a7.477,7.477,0,0,1,2.679,1.962.6.6,0,0,1-.005.424,2,2,0,0,1-.995,1.253,1.862,1.862,0,0,1-1.492-.05,16.4,16.4,0,0,1-5.381-3.5l0,0a16.4,16.4,0,0,1-3.5-5.374,1.863,1.863,0,0,1-.05-1.492A2,2,0,0,1,5.5,33.038a.6.6,0,0,1,.423-.006,7.491,7.491,0,0,1,1.963,2.674c.008.163-.051.278-.424.533a.58.58,0,1,0,.655.959,1.751,1.751,0,0,0,.928-1.553,7.106,7.106,0,0,0-2.716-3.7,1.755,1.755,0,0,0-1.2-.007,3.124,3.124,0,0,0-1.938,1.611,2.988,2.988,0,0,0,.031,2.414,17.557,17.557,0,0,0,3.753,5.759l.012.012a17.561,17.561,0,0,0,5.753,3.747,3.444,3.444,0,0,0,1.3.27,2.661,2.661,0,0,0,1.117-.24,3.124,3.124,0,0,0,1.611-1.938,1.756,1.756,0,0,0-.006-1.2A7.1,7.1,0,0,0,13.053,39.657Z" transform="translate(-2.949 -29.372)" fill="url(#linear-gradient)"/>
</svg>
