<svg id="surface1" xmlns="http://www.w3.org/2000/svg" width="46.733" height="54.88" viewBox="0 0 46.733 54.88">
  <path id="Tracé_104" data-name="Tracé 104" d="M46.679,14.889l0-.043c-.024-.527-.04-1.085-.049-1.705a5.816,5.816,0,0,0-5.477-5.7A22.57,22.57,0,0,1,25.79.968L25.754.934a3.512,3.512,0,0,0-4.773,0l-.036.034A22.572,22.572,0,0,1,5.584,7.444a5.816,5.816,0,0,0-5.477,5.7C.1,13.758.081,14.316.058,14.847l0,.1c-.123,6.434-.275,14.442,2.4,21.71a27.636,27.636,0,0,0,6.63,10.327,34.683,34.683,0,0,0,12.975,7.674,4.018,4.018,0,0,0,.532.145,3.927,3.927,0,0,0,1.544,0,4.033,4.033,0,0,0,.534-.146,34.706,34.706,0,0,0,12.961-7.679,27.675,27.675,0,0,0,6.63-10.33C46.953,29.358,46.8,21.336,46.679,14.889ZM41.243,35.534c-2.825,7.661-8.593,12.921-17.632,16.083a.809.809,0,0,1-.1.028.722.722,0,0,1-.283,0,.8.8,0,0,1-.1-.027C14.075,48.461,8.3,43.2,5.481,35.543c-2.469-6.7-2.329-14.05-2.206-20.535v-.036c.025-.557.042-1.141.051-1.782a2.585,2.585,0,0,1,2.436-2.53,28.254,28.254,0,0,0,9.59-2.109A25.09,25.09,0,0,0,23.168,3.3a.3.3,0,0,1,.4,0,25.1,25.1,0,0,0,7.815,5.25,28.255,28.255,0,0,0,9.59,2.109,2.585,2.585,0,0,1,2.436,2.531c.01.645.026,1.228.051,1.782C43.583,21.464,43.719,28.82,41.243,35.534Zm0,0" transform="translate(0 0.001)" fill="#852888"/>
  <path id="Tracé_105" data-name="Tracé 105" d="M104.075,128.41a13.677,13.677,0,1,0,13.677,13.677A13.692,13.692,0,0,0,104.075,128.41Zm0,24.133a10.457,10.457,0,1,1,10.456-10.457A10.468,10.468,0,0,1,104.075,152.543Zm0,0" transform="translate(-80.709 -114.646)" fill="#852888"/>
  <path id="Tracé_106" data-name="Tracé 106" d="M164.5,212.463l-6.353,6.352-1.724-1.724a1.61,1.61,0,0,0-2.277,2.277l2.863,2.863a1.61,1.61,0,0,0,2.277,0l7.491-7.491a1.61,1.61,0,0,0-2.277-2.277Zm0,0" transform="translate(-137.201 -189.268)" fill="#852888"/>
</svg>
