<svg xmlns="http://www.w3.org/2000/svg" xmlns:xlink="http://www.w3.org/1999/xlink" width="55" height="55" viewBox="0 0 55 55">
  <defs>
    <clipPath id="clip-path">
      <rect id="Rectangle_620" data-name="Rectangle 620" width="55" height="55" transform="translate(0.487 0.097)" fill="#852888" stroke="#852888" stroke-width="1"/>
    </clipPath>
  </defs>
  <g id="Groupe_203" data-name="Groupe 203" transform="translate(-0.487 -0.097)">
    <g id="Groupe_202" data-name="Groupe 202" transform="translate(0)" clip-path="url(#clip-path)">
      <path id="Tracé_603" data-name="Tracé 603" d="M94.691,0c1.054.205,2.124.315,3.164.609a16.582,16.582,0,0,1,1.325,31.5,3.041,3.041,0,0,1-.407.14.907.907,0,0,1-1.116-.6.885.885,0,0,1,.512-1.111c.259-.124.533-.213.8-.322a14.5,14.5,0,0,0,3.309-1.9c.156-.119.3-.218.321-.458a7.035,7.035,0,0,0-3.959-7.073.812.812,0,0,0-.881.039,8.03,8.03,0,0,1-8.723,0,.8.8,0,0,0-.881-.035,6.941,6.941,0,0,0-3.971,6.151,1.751,1.751,0,0,0,.94,1.831,18.275,18.275,0,0,0,3.057,1.576c.1.037.2.076.3.118a.926.926,0,1,1-.65,1.719,16.015,16.015,0,0,1-5.56-3.323,16.575,16.575,0,0,1,4.49-27.466A15.835,15.835,0,0,1,91.689.1,3.105,3.105,0,0,0,92.1,0ZM82.363,26.229c.026-.157.049-.291.071-.425a8.62,8.62,0,0,1,4.191-6.284c.43-.26.434-.39.143-.773a8.275,8.275,0,1,1,13.2.068c-.252.332-.242.441.127.659a8.657,8.657,0,0,1,4.162,5.771c.073.319.113.645.175,1.008a14.709,14.709,0,1,0-22.073-.023M99.849,13.785a6.452,6.452,0,1,0-6.44,6.479,6.492,6.492,0,0,0,6.44-6.479" transform="translate(-65.807)" fill="#852888" stroke="#852888" stroke-width="1"/>
      <path id="Tracé_604" data-name="Tracé 604" d="M108.106,238.295a1.966,1.966,0,0,1-1.334-2.617c.338-1.892.655-3.787.995-5.679a.752.752,0,0,0-.259-.755c-1.448-1.374-2.874-2.77-4.324-4.141a1.9,1.9,0,0,1-.645-2.036,1.83,1.83,0,0,1,1.672-1.312c1.958-.266,3.911-.568,5.87-.833a1.012,1.012,0,0,0,.89-.624c.849-1.763,1.751-3.5,2.613-5.258a1.878,1.878,0,0,1,3.529.014c.858,1.759,1.756,3.5,2.6,5.264a.961.961,0,0,0,.848.6c2.012.273,4.02.572,6.03.858a1.843,1.843,0,0,1,1.053,3.178q-2.226,2.16-4.469,4.3a.735.735,0,0,0-.25.754q.531,2.915,1.026,5.837a1.943,1.943,0,0,1-1.385,2.448h-.755c-.369-.179-.743-.351-1.107-.54q-2.481-1.285-4.957-2.58a.655.655,0,0,0-.694-.058c-2.021,1.071-4.053,2.121-6.082,3.177Zm14.029-1.87c-.013-.212-.009-.319-.027-.423-.368-2.122-.728-4.246-1.115-6.365a1.217,1.217,0,0,1,.388-1.209c.992-.939,1.985-1.877,2.948-2.845.643-.647,1.234-1.347,1.823-1.995a.418.418,0,0,0-.162-.05c-2.079-.3-4.156-.616-6.239-.878a1.628,1.628,0,0,1-1.434-1.013c-.856-1.818-1.777-3.606-2.678-5.4a1.012,1.012,0,0,0-.328-.5c-.1.194-.2.362-.287.535-.924,1.846-1.855,3.687-2.762,5.541a1.286,1.286,0,0,1-1.057.8c-1.352.181-2.7.38-4.053.575-.917.132-1.832.269-2.919.429.266.223.423.34.563.475,1.5,1.444,3,2.9,4.508,4.334a1.191,1.191,0,0,1,.4,1.158q-.356,1.96-.693,3.924c-.164.945-.32,1.891-.493,2.912.232-.109.378-.172.519-.245,1.593-.827,3.179-1.667,4.778-2.48,1.775-.9,1.248-.933,3.079.005,1.722.883,3.435,1.782,5.243,2.722" transform="translate(-87.746 -183.052)" fill="#852888" stroke="#852888" stroke-width="1"/>
      <path id="Tracé_605" data-name="Tracé 605" d="M261.866,201.361a4.12,4.12,0,0,1-.95,1.214c-1.005.952-1.988,1.927-3,2.874a.836.836,0,0,0-.3.883c.287,1.462.52,2.935.771,4.4a1.718,1.718,0,0,1-1.312,2.222,1.749,1.749,0,0,1-1.189-.233c-1.29-.673-2.6-1.316-3.861-2.033a1.306,1.306,0,0,0-1.466-.013c-1.282.722-2.6,1.376-3.913,2.048a.924.924,0,0,1-1.261-.179.887.887,0,0,1,.3-1.378c1.71-.915,3.435-1.8,5.155-2.7a1.04,1.04,0,0,1,1.026.076q2.051,1.077,4.108,2.141c.157.082.318.155.567.276-.187-1.113-.361-2.149-.536-3.183-.1-.6-.171-1.213-.321-1.8a1.3,1.3,0,0,1,.461-1.386c1.075-1.008,2.125-2.044,3.187-3.067.127-.123.268-.231.524-.45l-3.208-.471c-.675-.1-1.349-.217-2.027-.289a1.2,1.2,0,0,1-1.026-.749c-.67-1.371-1.357-2.734-2.043-4.1-.077-.154-.107-.346-.322-.455-.731,1.463-1.481,2.909-2.175,4.382a1.506,1.506,0,0,1-1.3.954c-1.764.222-3.522.5-5.283.744a.921.921,0,0,1-1.117-.751.88.88,0,0,1,.821-1.054c1.615-.25,3.233-.489,4.854-.7a.685.685,0,0,0,.591-.449c.653-1.34,1.337-2.665,1.981-4.009a1.828,1.828,0,0,1,1.691-1.281,1.806,1.806,0,0,1,1.649,1.257c.619,1.3,1.3,2.564,1.908,3.864a1.029,1.029,0,0,0,.917.663c1.373.166,2.737.411,4.112.563a2.169,2.169,0,0,1,1.987,1.3Z" transform="translate(-206.655 -165.108)" fill="#852888" stroke="#852888" stroke-width="1"/>
      <path id="Tracé_606" data-name="Tracé 606" d="M0,200.524a2.16,2.16,0,0,1,1.99-1.3c1.428-.161,2.846-.4,4.272-.589a.777.777,0,0,0,.679-.5c.67-1.391,1.384-2.761,2.062-4.148a1.691,1.691,0,0,1,3.169-.017c.686,1.4,1.393,2.8,2.079,4.2a.68.68,0,0,0,.594.441c1.584.208,3.165.447,4.744.691.7.107,1.011.493.928,1.072-.079.552-.553.832-1.221.736-1.672-.241-3.341-.5-5.017-.7a1.7,1.7,0,0,1-1.517-1.071c-.659-1.452-1.407-2.864-2.121-4.3-.217.095-.244.29-.321.443-.687,1.363-1.375,2.726-2.047,4.1a1.231,1.231,0,0,1-1.019.76c-1.638.219-3.272.471-4.907.71-.063.009-.125.026-.186.04.412.433.794.857,1.2,1.256.82.808,1.65,1.6,2.48,2.4a1.138,1.138,0,0,1,.357,1.117c-.3,1.676-.581,3.357-.872,5.066a1.015,1.015,0,0,0,.56-.209c1.356-.7,2.715-1.4,4.059-2.119a1.232,1.232,0,0,1,1.27-.013c1.6.851,3.216,1.677,4.821,2.521a.941.941,0,0,1,.53,1.327.951.951,0,0,1-1.4.292c-1.387-.718-2.774-1.437-4.152-2.173a.779.779,0,0,0-.838-.007c-1.359.733-2.74,1.426-4.1,2.151a1.706,1.706,0,0,1-2.613-1.888c.263-1.5.5-3.012.794-4.51a.754.754,0,0,0-.268-.792c-1.019-.964-2.016-1.95-3.033-2.916A4.066,4.066,0,0,1,0,201.387Z" transform="translate(-0.032 -165.134)" fill="#852888" stroke="#852888" stroke-width="1"/>
      <path id="Tracé_607" data-name="Tracé 607" d="M151.665,268.648c-.682.023-1.072-.277-1.129-.789a.907.907,0,0,1,.854-1.038c.815-.124,1.632-.242,2.45-.341a.723.723,0,0,0,.649-.458c.345-.748.726-1.48,1.1-2.214.316-.621.792-.83,1.3-.585a.937.937,0,0,1,.36,1.379c-.481.981-.981,1.953-1.465,2.934a1,1,0,0,1-.757.62c-1.152.175-2.305.338-3.362.493" transform="translate(-128.906 -225.27)" fill="#852888" stroke="#852888" stroke-width="1"/>
    </g>
  </g>
</svg>
